HIERARCHY
ROOT Hips
{
	OFFSET 0.00000 0.00000 0.00000
	CHANNELS 6 Xposition Yposition Zposition Zrotation Yrotation Xrotation 
	JOINT LHipJoint
	{
		OFFSET 0 0 0
		CHANNELS 3 Zrotation Yrotation Xrotation
		JOINT LeftHip
		{
			OFFSET 1.28858 -1.83292 1.03970
			CHANNELS 3 Zrotation Yrotation Xrotation
			JOINT LeftKnee
			{
				OFFSET 2.47846 -6.80952 0.00000
				CHANNELS 3 Zrotation Yrotation Xrotation
				JOINT LeftAnkle
				{
					OFFSET 2.75274 -7.56311 0.00000
					CHANNELS 3 Zrotation Yrotation Xrotation
					JOINT LeftToe
					{
						OFFSET 0.12848 -0.35301 1.68223
						CHANNELS 3 Zrotation Yrotation Xrotation
						End Site
						{
							OFFSET 0.00000 -0.00000 0.87311
						}
					}
				}
			}
		}
	}
	JOINT RHipJoint
	{
		OFFSET 0 0 0
		CHANNELS 3 Zrotation Yrotation Xrotation
		JOINT RightHip
		{
			OFFSET -1.31183 -1.83292 1.03970
			CHANNELS 3 Zrotation Yrotation Xrotation
			JOINT RightKnee
			{
				OFFSET -2.44740 -6.72417 0.00000
				CHANNELS 3 Zrotation Yrotation Xrotation
				JOINT RightAnkle
				{
					OFFSET -2.67343 -7.34519 0.00000
					CHANNELS 3 Zrotation Yrotation Xrotation
					JOINT RightToe
					{
						OFFSET -0.16914 -0.46471 1.77626
						CHANNELS 3 Zrotation Yrotation Xrotation
						End Site
						{
							OFFSET -0.00000 -0.00000 0.92777
						}
					}
				}
			}
		}
	}
	JOINT lowerback
	{
		OFFSET 0 0 0
		CHANNELS 3 Zrotation Yrotation Xrotation
		JOINT Chest
		{
			OFFSET 0.01249 2.14252 0.03842
			CHANNELS 3 Zrotation Yrotation Xrotation
			JOINT Chest2
			{
				OFFSET -0.02957 2.14199 -0.03751
				CHANNELS 3 Zrotation Yrotation Xrotation
				JOINT lowerneck
				{
					OFFSET 0 0 0
					CHANNELS 3 Zrotation Yrotation Xrotation
					JOINT Neck
					{
						OFFSET -0.01678 1.65709 -0.05476
						CHANNELS 3 Zrotation Yrotation Xrotation
						JOINT Head
						{
							OFFSET 0.07912 1.58331 -0.11843
							CHANNELS 3 Zrotation Yrotation Xrotation
							End Site
							{
								OFFSET 0.03298 1.73940 -0.04271
							}
						}
					}
				}
				JOINT LeftCollar
				{
					OFFSET 0 0 0
					CHANNELS 3 Zrotation Yrotation Xrotation
					JOINT LeftShoulder
					{
						OFFSET 3.39556 1.16496 0.08673
CHANNELS 3 Zrotation Xrotation Yrotation
						JOINT LeftElbow
						{
OFFSET 0 -5.239100 -0.000000
CHANNELS 3 Zrotation Xrotation Yrotation
							JOINT LeftWrist
							{
OFFSET 0 -3.314670 0.000000
CHANNELS 3 Zrotation Xrotation Yrotation
								JOINT lhand
								{
									OFFSET 0 0 0
CHANNELS 3 Zrotation Xrotation Yrotation
									JOINT LFingers
									{
OFFSET 0 -0.965900 0.000000
CHANNELS 3 Zrotation Xrotation Yrotation
										End Site
										{
OFFSET 0 -0.778730 0.000000
										}
									}
								}
								JOINT LThumb
								{
OFFSET 0 0.000000 0.000000
CHANNELS 3 Zrotation Xrotation Yrotation
									End Site
									{
OFFSET 0 -0.790620 0.790620
									}
								}
							}
						}
					}
				}
				JOINT RightCollar
				{
					OFFSET 0 0 0
					CHANNELS 3 Zrotation Yrotation Xrotation
					JOINT RightShoulder
					{
						OFFSET -3.27193 1.31331 0.33940
CHANNELS 3 Zrotation Xrotation Yrotation
						JOINT RightElbow
						{
OFFSET 0 -5.302520 0.000000
CHANNELS 3 Zrotation Xrotation Yrotation
							JOINT RightWrist
							{
OFFSET 0 -3.678750 0.000000
CHANNELS 3 Zrotation Xrotation Yrotation
								JOINT rhand
								{
									OFFSET 0 0 0
CHANNELS 3 Zrotation Xrotation Yrotation
									JOINT RFingers
									{
OFFSET 0 -0.594810 0.000000
CHANNELS 3 Zrotation Xrotation Yrotation
										End Site
										{
OFFSET 0 -0.479550 0.000000
										}
									}
								}
								JOINT RThumb
								{
OFFSET 0 0.000000 0.000000
CHANNELS 3 Zrotation Xrotation Yrotation
									End Site
									{
OFFSET 0 -0.486870 0.486870
									}
								}
							}
						}
					}
				}
			}
		}
	}
}
MOTION
Frames: 4
Frame Time: 0.008333333333333333
10.473200 18.089300 -38.732800 -0.749200 -3.529000 5.019500 0.000000 0.000000 0.000000 -16.306400 -0.565700 -0.652700 0.049200 1.431800 3.937800 0.004900 -6.500900 -4.679100 2.534800 9.900800 28.656200 0.000000 0.000000 0.000000 21.871000 6.939600 5.344300 -0.003100 -0.361100 0.992200 -0.738700 -12.763800 -25.416500 -0.204200 -2.909400 8.026600 -0.906000 -0.264500 -6.599700 -0.797400 -0.262600 -0.772400 -0.336500 -0.137400 2.903700 -5.350300 -9.868700 3.120300 10.392500 -13.633700 3.064900 4.170700 -6.844300 1.657800 0.000000 0.000000 0.000000 7.108800 -0.254700 -32.904400 12.572700 -20.658000 2.300300 19.086800 -31.393300 11.829200 0.000000 0.000000 0.000000 -7.125000 0.000000 0.000000 -5.648100 17.520500 -3.703900 0.000000 0.000000 0.000000 -5.034500 8.403700 28.864100 -16.088800 -25.640900 -3.684300 2.996700 -7.721800 39.751600 0.000000 0.000000 0.000000 7.125000 0.000000 -0.000000 47.387300 63.382500 -23.738700
10.472796 18.085096 -38.742352 -1.031918 -3.427979 5.269677 0.000000 0.000000 0.000000 -15.900030 -0.728710 -1.101537 0.054394 1.505618 4.141174 0.005174 -6.580467 -4.741033 2.496496 9.831476 28.432763 0.000000 0.000000 0.000000 22.226818 7.068935 4.960115 -0.005376 -0.473170 1.300197 -0.716732 -12.896993 -25.372560 -0.177423 -2.712748 7.479898 -0.684932 -0.322413 -6.811556 -0.681453 -0.356853 -0.786213 -0.350928 -0.182457 3.007246 -5.387709 -9.851298 3.315280 10.367986 -13.584881 2.700062 4.191815 -6.832368 1.498942 0.000000 0.000000 0.000000 7.184282 -0.223938 -33.487915 12.690374 -20.831910 2.342026 19.215406 -29.251199 11.255991 0.000000 0.000000 0.000000 -7.125000 0.000000 0.000000 -5.548570 18.110803 -3.565659 0.000000 0.000000 0.000000 -5.110275 8.331940 28.774416 -16.170279 -25.751024 -3.719685 2.188211 -7.177526 44.478400 0.000000 0.000000 0.000000 7.125000 0.000000 0.000000 54.378258 66.666684 -32.153888
10.479088 18.087980 -38.737356 -0.898158 -3.379582 5.206308 0.000000 0.000000 0.000000 -16.114241 -0.768099 -0.999724 0.054400 1.505312 4.140332 0.000176 -6.621226 -4.643550 2.643389 10.094103 29.281927 0.000000 0.000000 0.000000 22.054319 7.061342 5.099212 -0.004404 -0.429480 1.180124 -0.737904 -12.843013 -25.488940 -0.225128 -3.053849 8.428747 -0.824430 -0.387630 -6.677929 -0.675413 -0.435889 -0.845967 -0.272397 -0.223139 2.871910 -5.656060 -9.735352 3.444388 10.512800 -13.431561 2.511888 4.308749 -6.765390 1.433507 0.000000 0.000000 0.000000 7.206678 -0.165706 -34.191593 12.481216 -20.522378 2.268122 18.622498 -26.410010 11.250240 0.000000 0.000000 0.000000 -7.125000 0.000000 0.000000 -5.964924 18.162614 -3.829187 0.000000 0.000000 0.000000 -5.247688 8.557011 29.072233 -16.479772 -26.166834 -3.855109 3.214158 -7.183171 44.994764 0.000000 0.000000 0.000000 7.125000 0.000000 0.000000 56.221746 66.652654 -33.506651
10.486372 18.089364 -38.731492 -0.805419 -3.367752 5.178105 0.000000 0.000000 0.000000 -16.282019 -0.762257 -0.914241 0.052754 1.482369 4.077116 -0.002534 -6.641633 -4.589898 2.724039 10.234330 29.738947 0.000000 0.000000 0.000000 21.897746 6.920163 5.140636 -0.003918 -0.402586 1.106198 -0.744290 -12.750237 -25.448106 -0.233766 -3.111731 8.590025 -0.898776 -0.430970 -6.621630 -0.666713 -0.489712 -0.885428 -0.225860 -0.250491 2.800489 -5.891798 -9.620496 3.536261 10.638518 -13.273042 2.274529 4.412829 -6.694991 1.352974 0.000000 0.000000 0.000000 7.264371 -0.086695 -35.012223 12.351236 -20.329209 2.222768 17.405034 -23.549638 11.144652 0.000000 0.000000 0.000000 -7.125000 0.000000 0.000000 -6.819679 18.362069 -4.355056 0.000000 0.000000 0.000000 -5.360452 8.673961 29.353937 -16.589991 -26.314181 -3.903833 3.714224 -6.429727 45.160148 0.000000 0.000000 0.000000 7.125000 0.000000 0.000000 56.955923 66.592717 -33.988564
